<svg xmlns="http://www.w3.org/2000/svg" xmlns:xlink="http://www.w3.org/1999/xlink" viewBox="0 0 397.17 397.17">
  <defs>
    <linearGradient id="New_Gradient_Swatch_8" data-name="New Gradient Swatch 8" x1="198.58" y1="-4041595.21" x2="198.58" y2="-864246.01" gradientUnits="userSpaceOnUse">
      <stop offset="0" stop-color="#2aa5de"/>
      <stop offset="0.54" stop-color="#2177b8"/>
      <stop offset="1" stop-color="#29418f"/>
    </linearGradient>
  </defs>
  <g id="Layer_2" data-name="Layer 2">
    <g id="Layer_3" data-name="Layer 3">
      <path d="M339,58.16c-77.55-77.55-203.28-77.55-280.84,0s-77.55,203.29,0,280.84S261.45,416.56,339,339,416.56,135.72,339,58.16Zm-155.22,78.2c-5.38-9.27-6.76-10.82-6.76-10.82a11.47,11.47,0,0,0-9-4.59l-50.15-.74A17.3,17.3,0,0,0,105,125.69l-7.84,8.4,5.37-10.32a20.09,20.09,0,0,1,14.4-10.51l41.82-7.15-36.11,8.83.71.12,39.83-7.37c.22,3,1.06,8.45,4.22,10.89a22.14,22.14,0,0,1-3.27-11.07l.2,0a4.19,4.19,0,0,1,0-2.67,4.28,4.28,0,0,1,8.35,1.13l.12,0a21.91,21.91,0,0,1-3.22,12.67c4.44-3.43,4.29-12.87,4.29-12.87l10-1.86v17.77m-18.54,68.31,21.77-7.69,4.25,10.08-26,3.84Zm44.73-68.31V103.85l10,1.86s-.15,9.44,4.29,12.87a21.91,21.91,0,0,1-3.22-12.67l.12,0a4.28,4.28,0,1,1,8.33,1.54l.2,0a22.13,22.13,0,0,1-3.28,11.07c3.17-2.44,4-7.94,4.22-10.89l39.84,7.37.71-.12-36.11-8.83L277,113.27a20,20,0,0,1,14.39,10.49l5.38,10.33-7.85-8.4a17.26,17.26,0,0,0-12.87-5.48l-50.15.74a11.46,11.46,0,0,0-9,4.59l-6.58,10.82m18.27,53.57v6.23l-26-3.84,4.26-10.08ZM207.25,163c-1.87,7.79-10.29,36.47-10.29,36.47s-8.41-28.68-10.28-36.47c-1.38-5.76-.72-64-.28-77.86a20,20,0,0,1,6.06-13.72l1.08-1a4.9,4.9,0,0,1,6.85,0l1.08,1a20,20,0,0,1,6.06,13.72C208,99,208.63,157.26,207.25,163Zm-8.66,208.53a174.07,174.07,0,0,1-33-3.16l3.17-16.54,28.4-148.55v-.51l.61.25.61-.25v.51l28.46,148.84L230,368.69A174.14,174.14,0,0,1,198.59,371.55ZM293.85,343a172.27,172.27,0,0,1-29.67,15.71c-1.73-5.16-3.34-10.59-4.84-16.22-22.12-83.23-20.12-211.76-20.12-211.76,13,97.3,30.37,158.47,47.3,196.91a156.12,156.12,0,1,0-177.1-.85c16.81-38.5,34-99.48,46.92-196.06,0,0,2,127.88-20,211.13-1.48,5.65-3.08,11.09-4.8,16.27A173,173,0,1,1,293.85,343Z" style="fill: url(#New_Gradient_Swatch_8)"/>
    </g>
  </g>
</svg>
