<svg xmlns="http://www.w3.org/2000/svg" viewBox="0 0 222.3 177.77">
    <g id="Layer_2" data-name="Layer 2">
        <g id="Layer_2-2" data-name="Layer 2">
        <g>
            <path d="M193.9,32.76,157.75,56,120.36,33.1,173.8,22.86a1.74,1.74,0,0,1,.88.05l18.76,5.78a2.32,2.32,0,0,1,.46,4.07Z" style='fill: #3a9bb6'/>
            <path d="M51.09,36a4.58,4.58,0,0,0,6.61-2l1.72-3.32a5.74,5.74,0,0,0-1.77-7.37,4.58,4.58,0,0,0-6.61,2l-1.72,3.33A5.73,5.73,0,0,0,51.09,36ZM69.76,47.32h0a4.58,4.58,0,0,0,6.61-2L78.09,42a5.72,5.72,0,0,0-1.77-7.36,4.58,4.58,0,0,0-6.61,2L68,40a5.73,5.73,0,0,0,1.78,7.36ZM88.42,58.69h0a4.59,4.59,0,0,0,6.62-2l1.73-3.32A5.74,5.74,0,0,0,95,46a4.59,4.59,0,0,0-6.62,2l-1.72,3.32a5.75,5.75,0,0,0,1.77,7.37Zm18.67,11.37a4.59,4.59,0,0,0,6.62-2l1.72-3.32a5.74,5.74,0,0,0-1.77-7.36,4.59,4.59,0,0,0-6.62,2l-1.72,3.32a5.76,5.76,0,0,0,1.77,7.37ZM1.48,13.93l12.35,7.94a12.35,12.35,0,0,0,11.54,1l4.95-2.1a1.76,1.76,0,0,0,.23-3L8.84,3.83A18.41,18.41,0,0,1,23.83.4l.46.09A176,176,0,0,1,79.7,22.7L178,82.91l32.35-16.48a3.11,3.11,0,0,1,3.22.23l7.1,4.93a4,4,0,0,1,1.15,5.11L210.6,98.38l5.05,4a12.12,12.12,0,0,1,3,3.48,13.56,13.56,0,0,1,1.6,4.47c1.53,9-5.72,16.72-13.71,14.66l-52.66-13.56-71-30L11.53,42.83a21.21,21.21,0,0,1-7.85-7.47A24.36,24.36,0,0,1,.1,24.58C0,23.83,0,23.09,0,22.34a24.44,24.44,0,0,1,1.48-8.41Z" style='#19313e' />
            <path d="M104.84,93.9,98.77,90l-6.14-3.32a2.85,2.85,0,0,0-2.27,1.58,3.36,3.36,0,0,0,1,4.32l18.19,11.69L104.84,93.9Zm64.28,76.92c1,4-2.22,7.79-5.87,6.79l-20.76-5.7a5,5,0,0,1-3.17-2.82l-21.64-47.17-31.12-20c-6-3.85-8-12.39-4.58-19.06a14.06,14.06,0,0,1,.87-1.46l71,30,15.24,59.41Z" style='fill: #3a9bb6'/>
        </g>
        </g>
    </g>
</svg>
